# Blender v2.83.5 OBJ File: 'chibi.blend'
# www.blender.org
mtllib barrel.mtl
o Barrel_Mesh.008
v -0.083878 -0.000817 0.000000
v -0.067858 -0.000817 -0.049301
v -0.067858 0.197088 -0.049301
v -0.083878 0.197088 0.000000
v -0.025920 -0.000817 -0.079772
v -0.025920 0.197088 -0.079772
v 0.025919 -0.000817 -0.079772
v 0.025919 0.197088 -0.079772
v 0.067858 -0.000817 -0.049301
v 0.067858 0.197088 -0.049301
v 0.083877 -0.000817 0.000000
v 0.083877 0.197088 0.000000
v 0.067858 -0.000817 0.049302
v 0.067858 0.197088 0.049302
v 0.025919 -0.000817 0.079771
v 0.025919 0.197088 0.079771
v -0.025920 -0.000817 0.079771
v -0.025920 0.197088 0.079771
v -0.067858 -0.000817 0.049302
v -0.067858 0.197088 0.049302
v 0.000000 0.197088 0.000000
v -0.067858 0.098135 -0.049301
v -0.083878 0.098135 0.000000
v -0.025920 0.098136 -0.079772
v 0.025919 0.098136 -0.079772
v 0.067858 0.098135 -0.049301
v 0.083877 0.098135 0.000000
v 0.067858 0.098135 0.049302
v 0.025919 0.098135 0.079771
v -0.025920 0.098135 0.079771
v -0.067858 0.098135 0.049302
vt -0.897552 0.998871
vt -0.999293 0.998871
vt -0.999293 0.504598
vt -0.897552 0.504598
vt -0.998974 0.998871
vt -0.902478 0.998871
vt -0.902478 0.504598
vt -0.998974 0.504598
vt -0.808993 0.998871
vt -0.808993 0.504598
vt -0.712495 0.998871
vt -0.712495 0.504598
vt -0.610755 0.998871
vt -0.610755 0.504598
vt -0.509013 0.998871
vt -0.509013 0.504598
vt -0.509334 0.998871
vt -0.605829 0.998871
vt -0.605829 0.504598
vt -0.509334 0.504598
vt -0.699314 0.998871
vt -0.699314 0.504598
vt -0.795809 0.998871
vt -0.795809 0.504598
vt 0.994716 0.752671
vt 0.947968 0.902948
vt 0.749951 0.752671
vt 0.825589 0.995826
vt 0.674316 0.995826
vt 0.551934 0.902948
vt 0.505190 0.752671
vt 0.551934 0.602394
vt 0.674316 0.509520
vt 0.825589 0.509520
vt 0.947968 0.602394
vt -0.999293 0.504076
vt -0.999293 0.998349
vt -0.897552 0.998349
vt -0.897552 0.504076
vt -0.902478 0.504076
vt -0.902478 0.998349
vt -0.998974 0.998349
vt -0.998974 0.504076
vt -0.808993 0.504076
vt -0.808993 0.998349
vt -0.712495 0.504076
vt -0.712495 0.998349
vt -0.610755 0.504076
vt -0.610755 0.998349
vt -0.509013 0.504076
vt -0.509013 0.998349
vt -0.605829 0.504076
vt -0.605829 0.998349
vt -0.509334 0.998349
vt -0.509334 0.504076
vt -0.699314 0.504076
vt -0.699314 0.998349
vt -0.795809 0.504076
vt -0.795809 0.998349
vn 0.7653 0.6437 0.0000
vn 0.6191 0.6437 0.4498
vn 0.8090 -0.0000 0.5878
vn 1.0000 0.0000 -0.0000
vn 0.2365 0.6437 0.7278
vn 0.3090 -0.0000 0.9511
vn -0.2365 0.6437 0.7278
vn -0.3090 -0.0000 0.9511
vn -0.6191 0.6437 0.4498
vn -0.8090 -0.0000 0.5878
vn -0.7653 0.6437 0.0000
vn -1.0000 -0.0000 0.0000
vn -0.6191 0.6437 -0.4498
vn -0.8090 0.0000 -0.5878
vn -0.2365 0.6437 -0.7278
vn -0.3090 0.0000 -0.9511
vn 0.2365 0.6437 -0.7278
vn 0.3090 0.0000 -0.9511
vn 0.6191 0.6437 -0.4498
vn 0.8090 0.0000 -0.5878
vn 0.0000 -1.0000 -0.0000
vn 0.8089 -0.0000 0.5880
vn -0.8088 0.0000 0.5881
vn -0.8089 0.0000 -0.5880
vn 0.8088 -0.0000 -0.5881
usemtl barrel_blast.001
s 1
f 1/1/1 2/2/2 22/3/3
f 22/3/3 23/4/4 1/1/1
f 2/5/2 5/6/5 24/7/6
f 24/7/6 22/8/3 2/5/2
f 5/6/5 7/9/7 25/10/8
f 25/10/8 24/7/6 5/6/5
f 7/9/7 9/11/9 26/12/10
f 26/12/10 25/10/8 7/9/7
f 9/11/9 11/13/11 27/14/12
f 27/14/12 26/12/10 9/11/9
f 11/13/11 13/15/13 28/16/14
f 28/16/14 27/14/12 11/13/11
f 13/17/13 15/18/15 29/19/16
f 29/19/16 28/20/14 13/17/13
f 15/18/15 17/21/17 30/22/18
f 30/22/18 29/19/16 15/18/15
f 17/21/17 19/23/19 31/24/20
f 31/24/20 30/22/18 17/21/17
f 19/23/19 1/1/1 23/4/4
f 23/4/4 31/24/20 19/23/19
f 4/25/21 3/26/21 21/27/21
f 3/26/21 6/28/21 21/27/21
f 6/28/21 8/29/21 21/27/21
f 8/29/21 10/30/21 21/27/21
f 10/30/21 12/31/21 21/27/21
f 12/31/21 14/32/21 21/27/21
f 14/32/21 16/33/21 21/27/21
f 16/33/21 18/34/21 21/27/21
f 18/34/21 20/35/21 21/27/21
f 20/35/21 4/25/21 21/27/21
f 22/36/3 3/37/22 4/38/4
f 4/38/4 23/39/4 22/36/3
f 24/40/6 6/41/6 3/42/22
f 3/42/22 22/43/3 24/40/6
f 25/44/8 8/45/8 6/41/6
f 6/41/6 24/40/6 25/44/8
f 26/46/10 10/47/23 8/45/8
f 8/45/8 25/44/8 26/46/10
f 27/48/12 12/49/12 10/47/23
f 10/47/23 26/46/10 27/48/12
f 28/50/14 14/51/24 12/49/12
f 12/49/12 27/48/12 28/50/14
f 29/52/16 16/53/16 14/54/24
f 14/54/24 28/55/14 29/52/16
f 30/56/18 18/57/18 16/53/16
f 16/53/16 29/52/16 30/56/18
f 31/58/20 20/59/25 18/57/18
f 18/57/18 30/56/18 31/58/20
f 23/39/4 4/38/4 20/59/25
f 20/59/25 31/58/20 23/39/4
f 11/13/11 7/9/7 2/5/2
f 2/5/2 1/1/1 19/23/19
f 19/23/19 17/21/17 2/5/2
f 17/21/17 15/18/15 2/5/2
f 15/18/15 13/17/13 11/13/11
f 11/13/11 9/11/9 7/9/7
f 7/9/7 5/6/5 2/5/2
f 15/18/15 11/13/11 2/5/2
