# Blender v2.83.5 OBJ File: 'chibi.blend'
# www.blender.org
mtllib drone.mtl
o Drone_Mesh.003
v -0.023674 0.102274 0.054550
v -0.024209 0.104883 -0.050748
v 0.019997 0.104883 -0.051601
v 0.023525 0.102273 0.053639
v 0.023152 0.069002 0.034347
v -0.024046 0.069002 0.035258
v 0.019975 0.073128 -0.052712
v -0.024231 0.073128 -0.051859
v -0.001125 0.102801 0.004955
v 0.009506 0.102588 0.010818
v 0.011423 0.112356 0.010006
v -0.001161 0.112607 0.003065
v 0.009739 0.102163 0.022951
v 0.011701 0.111853 0.024369
v -0.000657 0.101951 0.029221
v -0.000607 0.111602 0.031791
v -0.011287 0.102163 0.023357
v -0.013192 0.111854 0.024850
v -0.011522 0.102588 0.011224
v -0.013469 0.112357 0.010487
v 0.007872 0.119361 0.012399
v -0.001076 0.119540 0.007463
v 0.008070 0.119003 0.022611
v -0.000683 0.118825 0.027889
v -0.009631 0.119004 0.022953
v -0.009828 0.119362 0.012740
v -0.000877 0.122291 0.017785
v -0.000664 0.099742 0.028859
v 0.011177 0.092907 0.028391
v 0.011833 0.091717 0.062369
v -0.000008 0.098553 0.062837
v 0.011304 0.078986 0.035018
v 0.011823 0.078045 0.061891
v -0.000545 0.072150 0.035008
v -0.000027 0.071209 0.061880
v -0.012386 0.078986 0.035475
v -0.011868 0.078045 0.062348
v -0.012514 0.092907 0.028848
v -0.011858 0.091717 0.062827
v 0.000010 0.084229 0.069435
v 0.065499 -0.037871 -0.043689
v 0.061956 -0.038181 -0.049552
v 0.052014 -0.046546 -0.035083
v 0.048471 -0.046856 -0.040946
v -0.000347 0.060612 -0.009117
v 0.013137 0.069287 -0.017723
v 0.009595 0.068976 -0.023586
v -0.003890 0.060302 -0.014980
v -0.001826 -0.032227 0.065503
v 0.005030 -0.032227 0.065370
v -0.002120 -0.042136 0.050243
v 0.004735 -0.042137 0.050111
v -0.003402 0.060238 -0.016214
v -0.003107 0.070148 -0.000955
v 0.003749 0.070147 -0.001087
v 0.003454 0.060238 -0.016347
v -0.062853 -0.038189 -0.047313
v -0.066166 -0.037878 -0.041318
v -0.049046 -0.046864 -0.039234
v -0.052359 -0.046553 -0.033238
v 0.004281 0.060293 -0.015308
v -0.009526 0.068968 -0.023387
v -0.012839 0.069278 -0.017392
v 0.000967 0.060603 -0.009312
v -0.078310 -0.065602 -0.005439
v -0.067021 -0.063548 0.033610
v -0.069245 -0.037777 0.033591
v -0.080903 -0.039898 -0.006734
v -0.037692 -0.062044 0.061790
v -0.038958 -0.036225 0.062691
v 0.001818 -0.061495 0.071550
v 0.001842 -0.035657 0.072769
v 0.040922 -0.062045 0.060273
v 0.042222 -0.036226 0.061124
v 0.069141 -0.063549 0.030983
v 0.071364 -0.037779 0.030877
v 0.078916 -0.065603 -0.008473
v 0.081458 -0.039900 -0.009867
v 0.067626 -0.067657 -0.047523
v 0.069799 -0.042021 -0.050193
v 0.038297 -0.069161 -0.075703
v 0.039513 -0.043573 -0.079293
v -0.001212 -0.069710 -0.085462
v -0.001287 -0.044141 -0.089371
v -0.040316 -0.069160 -0.074186
v -0.041668 -0.043572 -0.077726
v -0.068536 -0.067656 -0.044896
v -0.070809 -0.042019 -0.047479
v -0.055119 -0.065602 -0.005887
v -0.047159 -0.064154 0.021643
v -0.044987 -0.038517 0.018973
v -0.052577 -0.039898 -0.007281
v -0.026483 -0.063094 0.041509
v -0.025268 -0.037507 0.037920
v 0.001371 -0.062706 0.048390
v 0.001296 -0.037137 0.044481
v 0.028939 -0.063095 0.040440
v 0.027586 -0.037507 0.036900
v 0.048833 -0.064155 0.019790
v 0.046560 -0.038518 0.017207
v 0.055724 -0.065603 -0.008026
v 0.053131 -0.039900 -0.009321
v 0.047765 -0.067051 -0.035555
v 0.045541 -0.041280 -0.035575
v 0.027088 -0.068111 -0.055422
v 0.025822 -0.042291 -0.054521
v -0.000765 -0.068499 -0.062302
v -0.000741 -0.042661 -0.061083
v -0.028333 -0.068110 -0.054353
v -0.027032 -0.042290 -0.053502
v -0.048227 -0.067050 -0.033703
v -0.046005 -0.041279 -0.033809
v -0.057124 -0.029261 0.025817
v -0.066749 -0.031012 -0.007472
v -0.032122 -0.027980 0.049840
v 0.001560 -0.027511 0.058160
v 0.034895 -0.027981 0.048547
v 0.058953 -0.029263 0.023577
v 0.067286 -0.031014 -0.010059
v 0.057661 -0.032765 -0.043349
v 0.032658 -0.034046 -0.067372
v -0.001023 -0.034515 -0.075692
v -0.034359 -0.034045 -0.066079
v -0.058416 -0.032763 -0.041108
v -0.016393 -0.055051 -0.007186
v -0.007772 -0.054296 0.007083
v -0.007781 -0.045677 0.006632
v -0.016402 -0.046431 -0.007637
v 0.008914 -0.054296 0.006761
v 0.016978 -0.055051 -0.007830
v 0.016969 -0.046432 -0.008281
v 0.008905 -0.045677 0.006310
v 0.008357 -0.055806 -0.022100
v -0.008329 -0.055806 -0.021778
v -0.008338 -0.047187 -0.022229
v 0.008348 -0.047187 -0.022550
v -0.005747 -0.051158 0.047896
v -0.005753 -0.044535 0.047550
v 0.008464 -0.051158 0.047622
v 0.008458 -0.044535 0.047276
v 0.051403 -0.055179 -0.030070
v 0.051396 -0.048556 -0.030416
v 0.044060 -0.055822 -0.042223
v 0.044054 -0.049199 -0.042569
v -0.051657 -0.048555 -0.028428
v -0.051651 -0.055178 -0.028081
v -0.044789 -0.049198 -0.040855
v -0.044782 -0.055821 -0.040508
v 0.000295 -0.057825 -0.007363
v 0.000281 -0.043657 -0.008104
vt 0.375700 0.582002
vt 0.375696 0.997482
vt 0.042492 0.997482
vt 0.042495 0.582001
vt 0.314215 0.999131
vt 0.104173 0.999154
vt 0.104165 0.851033
vt 0.314208 0.851010
vt 0.649657 0.659864
vt 0.649657 0.997939
vt 0.379221 0.997939
vt 0.379221 0.581363
vt 0.393804 0.680939
vt 0.620746 0.680922
vt 0.620742 0.807766
vt 0.393803 0.807788
vt 0.649657 0.997939
vt 0.649657 0.659864
vt 0.379221 0.581363
vt 0.379221 0.997939
vt 0.647617 0.997775
vt 0.381597 0.997775
vt 0.381591 0.657991
vt 0.647608 0.657990
vt 0.469408 0.365180
vt 0.468124 0.415826
vt 0.295902 0.417188
vt 0.296988 0.374406
vt 0.469761 0.474612
vt 0.297279 0.466845
vt 0.472682 0.482752
vt 0.299753 0.473722
vt 0.473978 0.432107
vt 0.300838 0.430938
vt 0.472341 0.373321
vt 0.299461 0.381281
vt 0.628937 0.368750
vt 0.628565 0.416261
vt 0.629035 0.471407
vt 0.629882 0.479042
vt 0.630254 0.431531
vt 0.629783 0.376385
vt 0.651835 0.423856
vt 0.232230 0.577745
vt 0.004658 0.577745
vt 0.004663 0.485583
vt 0.232232 0.485584
vt 0.650811 0.577745
vt 0.460208 0.577745
vt 0.460207 0.485583
vt 0.650816 0.485583
vt 0.232634 0.577744
vt 0.232633 0.485583
vt 0.005062 0.577745
vt 0.005057 0.485583
vt 0.650413 0.577745
vt 0.459803 0.577746
vt 0.459804 0.485582
vt 0.650408 0.485583
vt 0.123611 0.419506
vt 0.244592 0.451172
vt 0.124651 0.481354
vt 0.244518 0.390868
vt 0.124499 0.360744
vt 0.004556 0.390926
vt 0.004633 0.451231
vt 0.672862 0.346013
vt 0.992970 0.346013
vt 0.992970 0.998118
vt 0.672862 0.998118
vt 0.971967 0.345694
vt 0.998612 0.345694
vt 0.998612 0.998694
vt 0.971967 0.998694
vt 0.998647 0.346013
vt 0.678539 0.346013
vt 0.678539 0.998118
vt 0.998647 0.998118
vt 0.679790 0.345464
vt 0.734972 0.345464
vt 0.734972 0.997995
vt 0.679790 0.997995
vt 0.672862 0.346013
vt 0.992970 0.346013
vt 0.992970 0.998118
vt 0.672862 0.998118
vt 0.971967 0.345694
vt 0.998612 0.345694
vt 0.998612 0.998694
vt 0.971967 0.998694
vt 0.998647 0.346013
vt 0.678539 0.346013
vt 0.678539 0.998118
vt 0.998647 0.998118
vt 0.679790 0.345464
vt 0.734972 0.345464
vt 0.734972 0.997995
vt 0.679790 0.997995
vt 0.672862 0.346013
vt 0.992970 0.346013
vt 0.992970 0.998118
vt 0.672862 0.998118
vt 0.971967 0.345694
vt 0.998612 0.345694
vt 0.998612 0.998694
vt 0.971967 0.998694
vt 0.998647 0.346013
vt 0.678539 0.346013
vt 0.678539 0.998118
vt 0.998647 0.998118
vt 0.679790 0.345464
vt 0.734972 0.345464
vt 0.734972 0.997995
vt 0.679790 0.997995
vt 0.791197 -0.000143
vt 1.022392 -0.000143
vt 1.022779 0.146308
vt 0.791556 0.146308
vt 1.272225 -0.000143
vt 1.272597 0.146308
vt 1.511799 -0.000143
vt 1.512137 0.146308
vt 1.729483 -0.000143
vt 1.729866 0.146308
vt 1.976395 -0.000143
vt 1.976781 0.146308
vt 2.225065 -0.000143
vt 2.225446 0.146308
vt 2.471154 -0.000143
vt 2.471592 0.146308
vt 2.753174 -0.000143
vt 2.753588 0.146308
vt 3.019852 -0.000143
vt 3.019852 0.146297
vt 0.010587 -0.000143
vt 0.273809 -0.000143
vt 0.274191 0.146308
vt 0.011403 0.146319
vt 0.519756 -0.000143
vt 0.520177 0.146308
vt 0.998865 0.278251
vt 0.759992 0.278251
vt 0.759992 0.355439
vt 0.998865 0.355439
vt 1.022392 0.223045
vt 0.791197 0.223045
vt 0.258465 0.278251
vt 0.012541 0.278251
vt 0.012542 0.355439
vt 0.258465 0.355439
vt 1.272225 0.223045
vt 0.593032 0.278251
vt 0.593032 0.355439
vt 1.511799 0.223045
vt 0.757364 0.278251
vt 0.757363 0.355439
vt 1.729483 0.223045
vt 0.996237 0.278251
vt 0.996236 0.355439
vt 1.976395 0.223045
vt 0.258283 0.278251
vt 0.012360 0.278251
vt 0.012359 0.355439
vt 0.258283 0.355439
vt 2.225065 0.223045
vt 0.592851 0.278251
vt 0.592852 0.355439
vt 2.471154 0.223045
vt 0.757182 0.278251
vt 0.757183 0.355439
vt 2.753174 0.223045
vt 0.996055 0.278251
vt 0.996055 0.355439
vt 3.019852 0.223045
vt 0.261093 0.278251
vt 0.015169 0.278251
vt 0.015169 0.355439
vt 0.261092 0.355439
vt 0.273809 0.223045
vt 0.010587 0.223045
vt 0.595660 0.278251
vt 0.595659 0.355439
vt 0.519756 0.223045
vt 0.791197 -0.000437
vt 0.792348 0.123739
vt 1.023372 0.123739
vt 1.022392 -0.000437
vt 1.273285 0.123739
vt 1.272225 -0.000437
vt 1.512815 0.123739
vt 1.511799 -0.000437
vt 1.730406 0.123739
vt 1.729483 -0.000437
vt 1.977442 0.123739
vt 1.976395 -0.000437
vt 2.226119 0.123739
vt 2.225065 -0.000437
vt 2.472198 0.123739
vt 2.471154 -0.000437
vt 2.754370 0.123739
vt 2.753174 -0.000437
vt 3.022114 0.123761
vt 3.019852 -0.000437
vt 0.010587 -0.000437
vt 0.010587 0.123717
vt 0.274925 0.123739
vt 0.273809 -0.000437
vt 0.520799 0.123739
vt 0.519756 -0.000437
vt 1.022392 0.277745
vt 0.791197 0.277745
vt 1.272225 0.277745
vt 1.511799 0.277745
vt 1.729483 0.277745
vt 1.976395 0.277745
vt 2.225065 0.277745
vt 2.471154 0.277745
vt 2.753174 0.277745
vt 3.019852 0.277745
vt 0.273809 0.277745
vt 0.010587 0.277745
vt 0.519756 0.277745
vt 0.518189 0.505471
vt 0.652578 0.505471
vt 0.652578 0.556969
vt 0.518189 0.556969
vt 0.002461 0.505471
vt 0.136850 0.505471
vt 0.136850 0.556969
vt 0.002461 0.556969
vt 0.271240 0.505471
vt 0.383799 0.505471
vt 0.383799 0.556969
vt 0.271240 0.556969
vt 0.010872 0.508855
vt 0.010872 0.530665
vt 0.639951 0.529952
vt 0.639951 0.509568
vt 0.010872 0.552475
vt 0.639951 0.553188
vt 0.010872 0.574285
vt 0.639951 0.573572
vt 0.010872 0.487045
vt 0.639951 0.486332
vt 0.010873 0.508223
vt 0.010873 0.530033
vt 0.639950 0.529320
vt 0.639950 0.508936
vt 0.010872 0.551843
vt 0.639951 0.552556
vt 0.010872 0.573653
vt 0.639951 0.572940
vt 0.010872 0.486413
vt 0.639951 0.485700
vt 0.006314 0.550579
vt 0.006314 0.572389
vt 0.635392 0.571676
vt 0.635392 0.551292
vt 0.006314 0.485149
vt 0.006314 0.506959
vt 0.635392 0.507672
vt 0.635392 0.484436
vt 0.006314 0.528769
vt 0.635392 0.528056
vt 0.330102 0.488894
vt 0.330102 0.573545
vn 0.0012 0.9997 0.0247
vn 0.0011 0.9997 0.0247
vn 0.0167 -0.5017 0.8649
vn 0.9994 0.0049 -0.0350
vn 0.9994 0.0050 -0.0350
vn -0.0187 0.0350 -0.9992
vn -0.0188 0.0350 -0.9992
vn -0.0189 0.0350 -0.9992
vn -1.0000 0.0047 0.0044
vn -1.0000 0.0048 0.0044
vn -0.0006 -0.9989 -0.0476
vn -0.0005 -0.9989 -0.0477
vn -0.0004 -0.9989 -0.0477
vn -0.0195 0.1714 -0.9850
vn 0.8481 0.1541 -0.5069
vn 0.8347 -0.2065 -0.5105
vn -0.0182 -0.1892 -0.9818
vn 0.8674 0.1194 0.4831
vn 0.8532 -0.2404 0.4629
vn 0.0192 0.1021 0.9946
vn 0.0186 -0.2574 0.9661
vn -0.8483 0.1197 0.5159
vn -0.8347 -0.2404 0.4954
vn -0.8672 0.1541 -0.4735
vn -0.8537 -0.2064 -0.4781
vn -0.0126 0.7541 -0.6567
vn 0.5855 0.7420 -0.3267
vn 0.5980 0.7186 0.3551
vn 0.0136 0.7063 0.7078
vn -0.5844 0.7182 0.3777
vn -0.5969 0.7424 -0.3041
vn 0.0012 0.9994 0.0352
vn 0.5005 0.8655 0.0207
vn 0.5005 0.8655 0.0206
vn 0.9998 -0.0000 -0.0193
vn 0.4997 -0.8653 -0.0400
vn 0.4998 -0.8652 -0.0401
vn 0.4993 -0.8655 -0.0400
vn 0.4997 -0.8653 -0.0401
vn -0.5005 -0.8655 -0.0207
vn -0.9998 0.0000 0.0193
vn -0.4993 0.8655 0.0399
vn -0.4996 0.8653 0.0400
vn -0.4997 0.8653 0.0401
vn 0.0151 -0.0490 0.9987
vn 0.4082 0.1966 0.8915
vn 0.0173 0.4186 0.9080
vn 0.4193 -0.2601 0.8698
vn 0.0169 -0.5018 0.8648
vn -0.3889 -0.2633 0.8829
vn -0.3774 0.1998 0.9042
vn 0.5163 0.0452 0.8552
vn 0.5162 0.0452 0.8553
vn 0.5161 0.0450 0.8554
vn 0.7410 0.4767 -0.4730
vn 0.7410 0.4767 -0.4729
vn -0.5160 -0.0451 -0.8554
vn -0.5162 -0.0452 -0.8553
vn -0.5161 -0.0450 -0.8554
vn -0.5160 -0.0450 -0.8554
vn -0.7409 -0.4770 0.4729
vn -0.7410 -0.4767 0.4729
vn 0.0164 0.5448 0.8384
vn 0.0162 0.5446 0.8386
vn 0.0165 0.5448 0.8384
vn -0.0164 -0.5448 -0.8384
vn -0.0165 -0.5449 -0.8384
vn -0.0162 -0.5446 -0.8386
vn 0.4829 -0.0453 -0.8745
vn 0.4828 -0.0452 -0.8746
vn 0.4826 -0.0452 -0.8747
vn -0.7589 0.4768 -0.4435
vn -0.7587 0.4767 -0.4440
vn -0.4828 0.0453 0.8746
vn -0.4829 0.0453 0.8745
vn -0.4827 0.0452 0.8746
vn -0.4826 0.0452 0.8747
vn 0.7589 -0.4768 0.4436
vn 0.7589 -0.4767 0.4435
vn -0.9948 -0.0991 0.0244
vn -0.8521 -0.0730 0.5183
vn -0.7819 0.4324 0.4491
vn -0.9129 0.4082 -0.0042
vn -0.4803 -0.0541 0.8754
vn -0.4419 0.4495 0.7763
vn 0.0193 -0.0472 0.9987
vn 0.0172 0.4558 0.8899
vn 0.5141 -0.0541 0.8560
vn 0.4711 0.4494 0.7590
vn 0.8714 -0.0730 0.4851
vn 0.7987 0.4319 0.4190
vn 0.9950 -0.0990 -0.0147
vn 0.9120 0.4082 -0.0394
vn 0.8519 -0.1251 -0.5086
vn 0.7809 0.3843 -0.4925
vn 0.4809 -0.1442 -0.8648
vn 0.4402 0.3669 -0.8195
vn -0.0191 -0.1511 -0.9883
vn -0.0176 0.3604 -0.9326
vn -0.5139 -0.1442 -0.8456
vn -0.4719 0.3668 -0.8017
vn -0.8714 -0.1254 -0.4742
vn -0.7995 0.3843 -0.4617
vn 0.0010 -0.9986 0.0522
vn 0.0012 -0.9986 0.0520
vn -0.0766 0.9970 -0.0072
vn -0.0888 0.9947 -0.0511
vn -0.0432 0.9988 0.0240
vn 0.0013 -0.9987 0.0519
vn 0.0449 0.9987 0.0236
vn 0.0763 0.9970 -0.0102
vn 0.0867 0.9948 -0.0533
vn 0.0744 0.9925 -0.0971
vn 0.0424 0.9907 -0.1289
vn -0.0033 0.9902 -0.1397
vn -0.0464 0.9908 -0.1268
vn -0.0783 0.9925 -0.0943
vn 0.9950 -0.0990 -0.0146
vn 0.8777 0.4774 -0.0409
vn 0.7519 0.4543 -0.4778
vn 0.8519 -0.1251 -0.5085
vn 0.4240 0.4376 -0.7929
vn 0.4815 -0.1441 -0.8645
vn -0.0174 0.4315 -0.9019
vn -0.0195 -0.1513 -0.9883
vn -0.4537 0.4379 -0.7761
vn -0.5139 -0.1441 -0.8456
vn -0.7692 0.4545 -0.4492
vn -0.8786 0.4775 -0.0076
vn -0.7523 0.5004 0.4286
vn -0.8521 -0.0730 0.5182
vn -0.4252 0.5171 0.7428
vn -0.4804 -0.0541 0.8754
vn 0.0164 0.5233 0.8520
vn 0.0193 -0.0471 0.9987
vn 0.4527 0.5168 0.7266
vn 0.5139 -0.0541 0.8562
vn 0.7683 0.5003 0.3994
vn 0.8713 -0.0731 0.4853
vn -0.7056 0.0363 0.7077
vn -0.9559 0.0144 0.2934
vn 0.9665 0.0144 0.2563
vn 0.7321 0.0366 0.6802
vn 0.7321 0.0366 0.6803
vn -0.2609 -0.0507 -0.9640
vn 0.2240 -0.0507 -0.9733
vn 0.2239 -0.0507 -0.9733
vn -0.2605 -0.0505 -0.9641
vn -0.9988 0.0018 0.0488
vn -0.0447 -0.9884 0.1453
vn 0.0505 -0.9885 0.1429
vn 0.0013 -0.9970 0.0769
vn 0.0015 -0.9971 0.0766
vn 0.9999 0.0015 0.0113
vn 0.0476 0.9981 0.0397
vn -0.0467 0.9981 0.0414
vn 0.0001 0.9996 -0.0276
vn -0.0001 0.9996 -0.0276
vn 0.5422 0.0444 0.8391
vn 0.1047 -0.9935 0.0451
vn 0.0556 -0.9978 -0.0369
vn 0.0226 -0.9990 0.0393
vn 0.0225 -0.9990 0.0393
vn -0.4908 -0.0460 -0.8701
vn -0.4905 -0.0460 -0.8702
vn 0.0538 0.9886 -0.1403
vn 0.1030 0.9930 -0.0585
vn 0.0199 0.9977 -0.0645
vn -0.5098 0.0442 0.8591
vn -0.1059 0.9928 -0.0553
vn -0.0588 0.9886 -0.1384
vn -0.0224 0.9977 -0.0640
vn 0.4564 -0.0465 -0.8886
vn -0.0571 -0.9978 -0.0347
vn -0.1022 -0.9935 0.0491
vn -0.0212 -0.9990 0.0402
vn -0.0209 -0.9990 0.0403
vn -0.0010 0.9986 -0.0522
usemtl drone_camera.001
s 1
f 4/1/1 3/2/1 2/3/2
f 2/3/2 1/4/1 4/1/1
f 6/5/3 5/6/3 4/7/3
f 4/7/3 1/8/3 6/5/3
f 5/9/4 7/10/4 3/11/5
f 3/11/5 4/12/4 5/9/4
f 7/13/6 8/14/7 2/15/8
f 2/15/8 3/16/7 7/13/6
f 8/17/9 6/18/9 1/19/10
f 1/19/10 2/20/9 8/17/9
f 8/21/11 7/22/11 5/23/12
f 5/23/12 6/24/13 8/21/11
f 12/25/14 11/26/15 10/27/16
f 10/27/16 9/28/17 12/25/14
f 11/26/15 14/29/18 13/30/19
f 13/30/19 10/27/16 11/26/15
f 14/29/18 16/31/20 15/32/21
f 15/32/21 13/30/19 14/29/18
f 16/31/20 18/33/22 17/34/23
f 17/34/23 15/32/21 16/31/20
f 18/33/22 20/35/24 19/36/25
f 19/36/25 17/34/23 18/33/22
f 20/35/24 12/25/14 9/28/17
f 9/28/17 19/36/25 20/35/24
f 22/37/26 21/38/27 11/26/15
f 11/26/15 12/25/14 22/37/26
f 21/38/27 23/39/28 14/29/18
f 14/29/18 11/26/15 21/38/27
f 23/39/28 24/40/29 16/31/20
f 16/31/20 14/29/18 23/39/28
f 24/40/29 25/41/30 18/33/22
f 18/33/22 16/31/20 24/40/29
f 25/41/30 26/42/31 20/35/24
f 20/35/24 18/33/22 25/41/30
f 26/42/31 22/37/26 12/25/14
f 12/25/14 20/35/24 26/42/31
f 27/43/32 21/38/27 22/37/26
f 27/43/32 23/39/28 21/38/27
f 27/43/32 24/40/29 23/39/28
f 27/43/32 25/41/30 24/40/29
f 27/43/32 26/42/31 25/41/30
f 27/43/32 22/37/26 26/42/31
f 31/44/33 30/45/33 29/46/34
f 29/46/34 28/47/34 31/44/33
f 30/48/35 33/49/35 32/50/35
f 32/50/35 29/51/35 30/48/35
f 33/49/36 35/52/37 34/53/38
f 34/53/38 32/50/39 33/49/36
f 35/52/40 37/54/40 36/55/40
f 36/55/40 34/53/40 35/52/40
f 37/56/41 39/57/41 38/58/41
f 38/58/41 36/59/41 37/56/41
f 39/57/42 31/44/43 28/47/43
f 28/47/43 38/58/44 39/57/42
f 40/60/45 30/61/46 31/62/47
f 40/60/45 33/63/48 30/61/46
f 40/60/45 35/64/49 33/63/48
f 40/60/45 37/65/50 35/64/49
f 40/60/45 39/66/51 37/65/50
f 40/60/45 31/62/47 39/66/51
f 43/67/52 41/68/53 46/69/54
f 46/69/54 45/70/54 43/67/52
f 41/71/55 42/72/55 47/73/56
f 47/73/56 46/74/56 41/71/55
f 42/75/57 44/76/58 48/77/59
f 48/77/59 47/78/60 42/75/57
f 44/79/61 43/80/62 45/81/62
f 45/81/62 48/82/62 44/79/61
f 51/83/41 49/84/41 54/85/41
f 54/85/41 53/86/41 51/83/41
f 49/87/63 50/88/64 55/89/63
f 55/89/63 54/90/65 49/87/63
f 50/91/35 52/92/35 56/93/35
f 56/93/35 55/94/35 50/91/35
f 52/95/66 51/96/67 53/97/68
f 53/97/68 56/98/68 52/95/66
f 59/99/69 57/100/69 62/101/70
f 62/101/70 61/102/71 59/99/69
f 57/103/72 58/104/73 63/105/73
f 63/105/73 62/106/73 57/103/72
f 58/107/74 60/108/75 64/109/76
f 64/109/76 63/110/77 58/107/74
f 60/111/78 59/112/78 61/113/79
f 61/113/79 64/114/79 60/111/78
f 65/115/80 66/116/81 67/117/82
f 67/117/82 68/118/83 65/115/80
f 66/116/81 69/119/84 70/120/85
f 70/120/85 67/117/82 66/116/81
f 69/119/84 71/121/86 72/122/87
f 72/122/87 70/120/85 69/119/84
f 71/121/86 73/123/88 74/124/89
f 74/124/89 72/122/87 71/121/86
f 73/123/88 75/125/90 76/126/91
f 76/126/91 74/124/89 73/123/88
f 75/125/90 77/127/92 78/128/93
f 78/128/93 76/126/91 75/125/90
f 77/127/92 79/129/94 80/130/95
f 80/130/95 78/128/93 77/127/92
f 79/129/94 81/131/96 82/132/97
f 82/132/97 80/130/95 79/129/94
f 81/131/96 83/133/98 84/134/99
f 84/134/99 82/132/97 81/131/96
f 83/135/98 85/136/100 86/137/101
f 86/137/101 84/138/99 83/135/98
f 85/136/100 87/139/102 88/140/103
f 88/140/103 86/137/101 85/136/100
f 87/139/102 65/115/80 68/118/83
f 68/118/83 88/140/103 87/139/102
f 66/141/104 65/142/104 89/143/104
f 89/143/104 90/144/105 66/141/104
f 68/118/83 67/117/82 113/145/106
f 113/145/106 114/146/107 68/118/83
f 69/147/105 66/148/104 90/149/105
f 90/149/105 93/150/104 69/147/105
f 67/117/82 70/120/85 115/151/108
f 115/151/108 113/145/106 67/117/82
f 71/152/109 69/147/105 93/150/104
f 93/150/104 95/153/104 71/152/109
f 70/120/85 72/122/87 116/154/32
f 116/154/32 115/151/108 70/120/85
f 73/155/105 71/152/109 95/153/104
f 95/153/104 97/156/109 73/155/105
f 72/122/87 74/124/89 117/157/110
f 117/157/110 116/154/32 72/122/87
f 75/158/105 73/155/105 97/156/109
f 97/156/109 99/159/105 75/158/105
f 74/124/89 76/126/91 118/160/111
f 118/160/111 117/157/110 74/124/89
f 77/161/105 75/162/105 99/163/105
f 99/163/105 101/164/105 77/161/105
f 76/126/91 78/128/93 119/165/112
f 119/165/112 118/160/111 76/126/91
f 79/166/105 77/161/105 101/164/105
f 101/164/105 103/167/104 79/166/105
f 78/128/93 80/130/95 120/168/113
f 120/168/113 119/165/112 78/128/93
f 81/169/105 79/166/105 103/167/104
f 103/167/104 105/170/105 81/169/105
f 80/130/95 82/132/97 121/171/114
f 121/171/114 120/168/113 80/130/95
f 83/172/104 81/169/105 105/170/105
f 105/170/105 107/173/104 83/172/104
f 82/132/97 84/134/99 122/174/115
f 122/174/115 121/171/114 82/132/97
f 85/175/104 83/176/104 107/177/104
f 107/177/104 109/178/109 85/175/104
f 84/138/99 86/137/101 123/179/116
f 123/179/116 122/180/115 84/138/99
f 87/181/105 85/175/104 109/178/109
f 109/178/109 111/182/105 87/181/105
f 86/137/101 88/140/103 124/183/117
f 124/183/117 123/179/116 86/137/101
f 65/142/104 87/181/105 111/182/105
f 111/182/105 89/143/104 65/142/104
f 88/140/103 68/118/83 114/146/107
f 114/146/107 124/183/117 88/140/103
f 89/184/118 92/185/119 91/186/120
f 91/186/120 90/187/121 89/184/118
f 90/187/121 91/186/120 94/188/122
f 94/188/122 93/189/123 90/187/121
f 93/189/123 94/188/122 96/190/124
f 96/190/124 95/191/125 93/189/123
f 95/191/125 96/190/124 98/192/126
f 98/192/126 97/193/127 95/191/125
f 97/193/127 98/192/126 100/194/128
f 100/194/128 99/195/102 97/193/127
f 99/195/102 100/194/128 102/196/129
f 102/196/129 101/197/80 99/195/102
f 101/197/80 102/196/129 104/198/130
f 104/198/130 103/199/131 101/197/80
f 103/199/131 104/198/130 106/200/132
f 106/200/132 105/201/133 103/199/131
f 105/201/133 106/200/132 108/202/134
f 108/202/134 107/203/135 105/201/133
f 107/204/135 108/205/134 110/206/136
f 110/206/136 109/207/137 107/204/135
f 109/207/137 110/206/136 112/208/138
f 112/208/138 111/209/139 109/207/137
f 111/209/139 112/208/138 92/185/119
f 92/185/119 89/184/118 111/209/139
f 113/145/106 91/210/120 92/211/119
f 92/211/119 114/146/107 113/145/106
f 115/151/108 94/212/122 91/210/120
f 91/210/120 113/145/106 115/151/108
f 116/154/32 96/213/124 94/212/122
f 94/212/122 115/151/108 116/154/32
f 117/157/110 98/214/126 96/213/124
f 96/213/124 116/154/32 117/157/110
f 118/160/111 100/215/128 98/214/126
f 98/214/126 117/157/110 118/160/111
f 119/165/112 102/216/129 100/215/128
f 100/215/128 118/160/111 119/165/112
f 120/168/113 104/217/130 102/216/129
f 102/216/129 119/165/112 120/168/113
f 121/171/114 106/218/132 104/217/130
f 104/217/130 120/168/113 121/171/114
f 122/174/115 108/219/134 106/218/132
f 106/218/132 121/171/114 122/174/115
f 123/179/116 110/220/136 108/221/134
f 108/221/134 122/180/115 123/179/116
f 124/183/117 112/222/138 110/220/136
f 110/220/136 123/179/116 124/183/117
f 114/146/107 92/211/119 112/222/138
f 112/222/138 124/183/117 114/146/107
f 125/223/140 126/224/141 127/225/141
f 127/225/141 128/226/140 125/223/140
f 129/227/142 130/228/143 131/229/144
f 131/229/144 132/230/142 129/227/142
f 133/231/145 134/232/146 135/233/147
f 135/233/147 136/234/148 133/231/145
f 127/235/141 126/236/141 137/237/149
f 137/237/149 138/238/149 127/235/141
f 126/236/150 129/239/151 139/240/152
f 139/240/152 137/237/153 126/236/150
f 129/239/142 132/241/142 140/242/154
f 140/242/154 139/240/154 129/239/142
f 132/243/155 127/235/156 138/238/157
f 138/238/157 140/244/158 132/243/155
f 131/245/144 130/246/143 141/247/159
f 141/247/159 142/248/159 131/245/144
f 130/246/160 133/249/161 143/250/162
f 143/250/162 141/247/163 130/246/160
f 133/249/145 136/251/148 144/252/164
f 144/252/164 143/250/165 133/249/145
f 136/253/166 131/245/167 142/248/168
f 142/248/168 144/254/168 136/253/166
f 125/255/140 128/256/140 145/257/169
f 145/257/169 146/258/169 125/255/140
f 128/259/170 135/260/171 147/261/172
f 147/261/172 145/262/172 128/259/170
f 135/260/147 134/263/146 148/264/173
f 148/264/173 147/261/173 135/260/147
f 134/263/174 125/255/175 146/258/176
f 146/258/176 148/264/177 134/263/174
f 126/224/150 125/223/175 149/265/104
f 128/226/170 127/225/156 150/266/178
f 129/227/151 126/224/150 149/265/104
f 127/225/156 132/230/155 150/266/178
f 130/228/160 129/227/151 149/265/104
f 132/230/155 131/229/167 150/266/178
f 133/231/161 130/228/160 149/265/104
f 131/229/167 136/234/166 150/266/178
f 134/232/174 133/231/161 149/265/104
f 136/234/166 135/233/171 150/266/178
f 125/223/175 134/232/174 149/265/104
f 135/233/171 128/226/170 150/266/178
