# Blender v2.83.5 OBJ File: 'chibi.blend'
# www.blender.org
mtllib gate.mtl
o Gate_Mesh.004
v -0.708430 0.516624 0.039232
v 0.708572 0.516624 0.039232
v 0.708572 0.720315 -0.111130
v -0.708430 0.720315 -0.111130
v -0.708430 0.519979 0.043776
v 0.708572 0.519979 0.043776
v 0.708572 0.723670 -0.106585
v -0.708430 0.723670 -0.106585
vt 0.000003 0.000000
vt 0.000003 2.005119
vt 8.739868 2.005119
vt 8.739868 0.000000
vt 0.000003 0.000000
vt 8.739868 0.000000
vt 8.739868 2.005119
vt 0.000003 2.005119
vn 0.0000 -0.5939 -0.8045
vn 0.0000 0.5939 0.8045
usemtl mesh.001
s 1
f 1/1/1 4/2/1 3/3/1
f 3/3/1 2/4/1 1/1/1
f 5/5/2 6/6/2 7/7/2
f 7/7/2 8/8/2 5/5/2
o Gate.001_Mesh.016
v -0.000624 0.733671 -0.094278
v 0.020243 0.722296 -0.109046
v -0.000624 0.710924 -0.123813
v -0.021492 0.722296 -0.109046
v 0.693839 0.733671 -0.094278
v 0.713570 0.722296 -0.109046
v 0.693839 0.710924 -0.123813
v 0.674106 0.722296 -0.109046
v -0.693696 0.733671 -0.094278
v -0.673963 0.722296 -0.109046
v -0.693696 0.710924 -0.123813
v -0.713427 0.722296 -0.109046
v -0.000624 0.529980 0.056084
v 0.020243 0.518605 0.041317
v -0.021492 0.518605 0.041317
v 0.693839 0.529980 0.056084
v 0.713570 0.518605 0.041317
v 0.674106 0.518605 0.041317
v -0.713427 0.518605 0.041317
v -0.693696 0.529980 0.056084
v -0.673963 0.518605 0.041317
v -0.000624 0.507232 0.026548
v 0.693839 0.507232 0.026548
v -0.693696 0.507232 0.026548
vt 0.500000 1.000000
vt 0.600000 1.000000
vt 0.500000 1.000000
vt 0.400000 1.000000
vt 0.900000 1.000000
vt 1.000000 1.000000
vt 0.900000 1.000000
vt 0.800000 1.000000
vt 0.100000 1.000000
vt 0.200000 1.000000
vt 0.100000 1.000000
vt 0.000000 1.000000
vt 2.018875 0.899534
vt 1.514382 0.899536
vt 1.514382 0.202268
vt 2.018875 0.202269
vt 0.000846 0.202269
vt 0.505367 0.202268
vt 0.505367 0.899536
vt 0.000846 0.899534
vt 2.018870 0.899534
vt 1.514382 0.899536
vt 1.514382 0.202268
vt 2.018870 0.202269
vt 0.000840 0.202269
vt 0.505367 0.202268
vt 0.505367 0.899536
vt 0.000840 0.899534
vt 0.000871 0.202269
vt 0.505367 0.202268
vt 0.505367 0.899536
vt 0.000871 0.899534
vt 1.514382 0.899536
vt 1.514382 0.202268
vt 1.009889 0.202267
vt 1.009889 0.899532
vt 1.009894 0.202267
vt 1.009894 0.899532
vt 1.009864 0.899532
vt 1.009864 0.202267
vn 0.0000 0.7921 -0.6104
vn 0.0000 0.7920 -0.6106
vn 0.0000 0.7923 -0.6102
vn 0.0000 0.5939 0.8045
vn 1.0000 -0.0062 -0.0076
vn 1.0000 0.0061 0.0076
vn -1.0000 0.0061 0.0076
vn -1.0000 -0.0062 -0.0076
vn 1.0000 -0.0056 -0.0076
vn 1.0000 0.0056 0.0076
vn -1.0000 0.0052 0.0077
vn -1.0000 -0.0056 -0.0076
vn -1.0000 0.0056 0.0076
vn 0.0000 -0.5939 -0.8045
usemtl piping.001
s 1
f 9/9/3 10/10/4 11/11/5
f 11/11/5 12/12/5 9/9/3
f 13/13/3 14/14/5 15/15/5
f 15/15/5 16/16/5 13/13/3
f 17/17/5 18/18/5 19/19/5
f 19/19/5 20/20/5 17/17/5
f 21/21/6 22/22/7 10/23/8
f 10/23/8 9/24/6 21/21/6
f 9/25/6 12/26/9 23/27/10
f 23/27/10 21/28/6 9/25/6
f 24/29/6 25/30/11 14/31/12
f 14/31/12 13/32/6 24/29/6
f 13/33/6 16/34/13 26/35/14
f 26/35/14 24/36/6 13/33/6
f 17/37/6 20/38/15 27/39/14
f 27/39/14 28/40/6 17/37/6
f 28/40/6 29/41/11 18/42/12
f 18/42/12 17/37/6 28/40/6
f 11/43/16 10/23/8 22/22/7
f 22/22/7 30/44/16 11/43/16
f 30/44/16 23/27/10 12/26/9
f 12/26/9 11/43/16 30/44/16
f 15/45/16 14/31/12 25/30/11
f 25/30/11 31/46/16 15/45/16
f 31/46/16 26/35/14 16/34/13
f 16/34/13 15/45/16 31/46/16
f 32/47/16 27/39/14 20/38/15
f 20/38/15 19/48/16 32/47/16
f 19/48/16 18/42/12 29/41/11
f 29/41/11 32/47/16 19/48/16
o Gate.002_Mesh.017
v -0.657135 0.525346 0.089873
v 0.654414 0.525346 0.089873
v 0.654414 0.525346 0.000307
v -0.657135 0.525346 0.000307
v 0.654414 -0.001332 0.000307
v -0.657135 -0.001332 0.000307
v -0.657135 -0.001332 0.089873
v 0.654414 -0.001332 0.089873
vt 0.000000 1.000000
vt 2.995297 1.000000
vt 2.995297 1.000000
vt 0.000000 1.000000
vt 2.995297 0.000000
vt 0.000000 0.000000
vt 0.000000 0.000000
vt 2.995297 0.000000
vn 0.0000 1.0000 0.0000
vn 0.0000 -0.0000 -1.0000
vn 0.0000 0.0000 1.0000
vn 1.0000 -0.0000 0.0000
vn -1.0000 -0.0000 0.0000
usemtl wall_1.001
s 1
f 33/49/17 34/50/17 35/51/17
f 35/51/17 36/52/17 33/49/17
f 36/52/18 35/51/18 37/53/18
f 37/53/18 38/54/18 36/52/18
f 34/50/19 33/49/19 39/55/19
f 39/55/19 40/56/19 34/50/19
f 35/51/20 34/50/20 40/56/20
f 40/56/20 37/53/20 35/51/20
f 38/54/21 39/55/21 33/49/21
f 33/49/21 36/52/21 38/54/21
o Gate.003_Mesh.018
v 0.744872 0.532512 -0.024132
v 0.744872 0.532512 0.114313
v 0.744872 -0.001332 0.114313
v 0.744872 -0.001332 -0.024132
v 0.654775 0.532512 -0.024132
v 0.654775 0.532512 0.114313
v 0.654775 -0.001332 0.114313
v 0.654775 -0.001332 -0.024132
v -0.653004 0.532512 -0.024132
v -0.653004 0.532512 0.114313
v -0.653004 -0.001332 0.114313
v -0.653004 -0.001332 -0.024132
v -0.743101 0.532512 -0.024132
v -0.743101 0.532512 0.114313
v -0.743101 -0.001332 0.114313
v -0.743101 -0.001332 -0.024132
vt 0.637757 0.995282
vt 0.992814 0.995282
vt 0.992814 -0.004718
vt 0.637757 -0.004718
vt 1.000000 0.000000
vt 1.000000 1.000000
vt 1.000000 1.000000
vt 1.000000 0.000000
vt 0.004630 0.808647
vt 0.004630 0.279525
vt 0.492414 0.279525
vt 0.492414 0.808647
vt 0.492414 0.279525
vt 0.492414 0.808647
vt 0.004630 0.808647
vt 0.004630 0.279525
vt 0.997837 0.225102
vt 0.997837 0.917568
vt 0.643213 0.917568
vt 0.643213 0.225102
vt 0.643213 0.225102
vt 0.997837 0.225102
vt 0.997837 0.917568
vt 0.643213 0.917568
vt 1.000000 0.000000
vt 1.000000 1.000000
vt 1.000000 1.000000
vt 1.000000 0.000000
vt 0.004630 0.808647
vt 0.004630 0.279525
vt 0.492414 0.279525
vt 0.492414 0.808647
vt 0.492414 0.279525
vt 0.492414 0.808647
vt 0.004630 0.808647
vt 0.004630 0.279525
vt 0.992814 0.995282
vt 0.992814 -0.004718
vt 0.637757 -0.004718
vt 0.637757 0.995282
vn 1.0000 -0.0000 0.0000
vn 0.0000 1.0000 0.0000
vn 0.0000 0.0000 1.0000
vn 0.0000 -0.0000 -1.0000
vn -1.0000 0.0000 0.0000
usemtl scaffolding.001
s 1
f 41/57/22 42/58/22 43/59/22
f 43/59/22 44/60/22 41/57/22
f 42/61/23 41/62/23 45/63/23
f 45/63/23 46/64/23 42/61/23
f 43/65/24 42/66/24 46/67/24
f 46/67/24 47/68/24 43/65/24
f 41/69/25 44/70/25 48/71/25
f 48/71/25 45/72/25 41/69/25
f 45/73/26 48/74/26 47/75/26
f 47/75/26 46/76/26 45/73/26
f 49/77/22 50/78/22 51/79/22
f 51/79/22 52/80/22 49/77/22
f 50/81/23 49/82/23 53/83/23
f 53/83/23 54/84/23 50/81/23
f 51/85/24 50/86/24 54/87/24
f 54/87/24 55/88/24 51/85/24
f 49/89/25 52/90/25 56/91/25
f 56/91/25 53/92/25 49/89/25
f 53/93/26 56/94/26 55/95/26
f 55/95/26 54/96/26 53/93/26
