# Blender v2.83.5 OBJ File: 'chibi.blend'
# www.blender.org
mtllib hud.mtl
o HUD_Mesh.006
v 0.138498 0.098232 -0.000396
v -0.039309 0.098232 0.000022
v 0.138498 -0.011786 -0.000396
v -0.039309 -0.011786 0.000022
v 0.202432 -0.117031 0.000303
v 0.202432 -0.035690 0.000303
v -0.039309 -0.035690 0.000022
v -0.039309 -0.117031 0.000022
v -0.075217 -0.063043 0.000106
v -0.075217 0.114321 0.000106
v -0.192215 0.114321 0.000381
v -0.192215 -0.063043 0.000381
v 0.215887 -0.128076 -0.000578
v 0.215887 0.134248 -0.000578
v -0.208661 0.134248 0.000419
v -0.208661 -0.128076 0.000419
v 0.209112 -0.121301 -0.000562
v 0.209112 0.112947 -0.000562
v -0.201886 0.127473 0.000403
v -0.201886 -0.110295 0.000403
v -0.177865 -0.121301 0.000347
v -0.177865 -0.110295 0.000347
v 0.168534 0.127473 -0.000467
v 0.168534 0.112947 -0.000467
vt 0.485163 0.297494
vt 1.000000 0.297494
vt 1.000000 1.000000
vt 0.485163 1.000000
vt 0.983589 0.029078
vt 0.983589 0.300777
vt 0.016411 0.300777
vt 0.016411 0.029078
vt 0.467969 0.298191
vt 0.467969 1.000000
vt 0.000001 1.000000
vt 0.000001 0.298191
vt 0.472992 0.274218
vt 0.472992 0.241116
vt 0.544842 0.243804
vt 0.544842 0.273363
vt 0.481006 0.251644
vt 0.481006 0.274218
vt 0.474139 0.274218
vt 0.544842 0.241116
vt 0.544842 0.274218
vt 0.472993 0.271974
vt 0.472993 0.241971
vt 0.539630 0.261606
vt 0.539630 0.241116
vt 0.543695 0.241116
vt 0.474139 0.261606
vt 0.543695 0.251644
vn 0.0012 0.0000 1.0000
vn 0.0013 0.0000 1.0000
vn -0.0020 0.0000 1.0000
vn -0.0018 0.0000 1.0000
vn 0.0014 0.0000 1.0000
vn 0.0019 0.0000 1.0000
vn 0.0023 -0.0000 1.0000
usemtl codec.001
s 1
f 3/1/1 1/2/1 2/3/1
f 2/3/1 4/4/2 3/1/1
f 5/5/3 6/6/4 7/7/3
f 7/7/3 8/8/4 5/5/3
f 9/9/5 10/10/1 11/11/6
f 11/11/6 12/12/6 9/9/5
f 13/13/2 14/14/1 18/15/2
f 18/15/2 17/16/5 13/13/2
f 14/14/1 23/17/5 24/18/5
f 24/18/5 18/19/2 14/14/1
f 15/20/6 16/21/6 20/22/7
f 20/22/7 19/23/6 15/20/6
f 16/21/6 21/24/6 22/25/6
f 22/25/6 20/26/7 16/21/6
f 16/21/6 13/13/2 17/27/5
f 17/27/5 21/24/6 16/21/6
f 14/14/1 15/20/6 19/28/6
f 19/28/6 23/17/5 14/14/1
